<?xml version="1.0" standalone="no"?>
<!DOCTYPE svg PUBLIC "-//W3C//DTD SVG 20010904//EN"
 "http://www.w3.org/TR/2001/REC-SVG-20010904/DTD/svg10.dtd">
<svg version="1.0" xmlns="http://www.w3.org/2000/svg"
 width="300.000000pt" height="300.000000pt" viewBox="0 0 300.000000 300.000000"
 preserveAspectRatio="xMidYMid meet">
<metadata>
Created by potrace 1.11, written by Peter Selinger 2001-2013
</metadata>
<g transform="translate(0.000000,300.000000) scale(0.100000,-0.100000)"
fill="#000000" stroke="none">
<path d="M218 2988 c-21 -6 -38 -14 -38 -19 0 -5 -6 -9 -14 -9 -16 0 -126
-105 -126 -120 0 -6 -4 -10 -9 -10 -28 0 -31 -129 -31 -1330 0 -1201 3 -1330
31 -1330 5 0 9 -4 9 -10 0 -15 110 -120 126 -120 8 0 14 -4 14 -9 0 -28 111
-31 1320 -31 1209 0 1320 3 1320 31 0 5 6 9 14 9 16 0 126 105 126 120 0 6 4
10 9 10 28 0 31 129 31 1330 0 1201 -3 1330 -31 1330 -5 0 -9 4 -9 10 0 15
-110 120 -126 120 -8 0 -14 4 -14 9 0 28 -110 31 -1327 30 -787 -1 -1252 -5
-1275 -11z m2382 -1488 l0 -1100 -1100 0 -1100 0 0 1100 0 1100 1100 0 1100 0
0 -1100z"/>
<path d="M490 2513 c0 -2 0 -458 0 -1013 l0 -1010 1010 0 1010 0 0 1010 0
1010 -1010 3 c-555 1 -1010 1 -1010 0z m825 -374 c77 -36 150 -139 215 -304
43 -108 370 -976 370 -981 0 -3 -39 -3 -87 -2 l-87 3 -102 290 c-56 160 -108
311 -114 338 -7 26 -15 47 -19 47 -4 0 -12 -20 -19 -44 -17 -66 -212 -620
-221 -629 -4 -4 -44 -7 -89 -5 l-80 3 139 355 c76 195 151 388 165 428 l27 73
-37 92 c-38 97 -89 175 -130 203 -14 9 -44 18 -67 21 l-41 6 6 55 c4 30 9 59
12 63 10 18 113 9 159 -12z"/>
</g>
</svg>
